<svg width="1280" height="720" viewBox="0 0 1280 720" xmlns="http://www.w3.org/2000/svg">
  <defs>
    <linearGradient id="bg" x1="0" y1="0" x2="1" y2="1">
      <stop offset="0%" stop-color="#10263a" />
      <stop offset="55%" stop-color="#0c1a29" />
      <stop offset="100%" stop-color="#08121c" />
    </linearGradient>
    <linearGradient id="glass" x1="0" y1="0" x2="1" y2="0">
      <stop offset="0%" stop-color="rgba(255,255,255,0.18)" />
      <stop offset="100%" stop-color="rgba(255,255,255,0.08)" />
    </linearGradient>
    <radialGradient id="bubbleBlue" cx="35%" cy="35%" r="75%">
      <stop offset="0%" stop-color="#ffffff" />
      <stop offset="40%" stop-color="#6ae3ff" />
      <stop offset="100%" stop-color="#0b1f2f" />
    </radialGradient>
    <radialGradient id="bubblePink" cx="35%" cy="35%" r="75%">
      <stop offset="0%" stop-color="#ffffff" />
      <stop offset="40%" stop-color="#ff6b6b" />
      <stop offset="100%" stop-color="#2a0b0b" />
    </radialGradient>
    <radialGradient id="bubbleYellow" cx="35%" cy="35%" r="75%">
      <stop offset="0%" stop-color="#ffffff" />
      <stop offset="40%" stop-color="#ffd93d" />
      <stop offset="100%" stop-color="#2a2304" />
    </radialGradient>
    <filter id="blur" x="-20%" y="-20%" width="140%" height="140%">
      <feGaussianBlur stdDeviation="12" />
    </filter>
  </defs>

  <rect width="1280" height="720" fill="url(#bg)" />
  <rect width="1280" height="720" fill="rgba(4,8,14,0.2)" filter="url(#blur)" />
  <rect width="1280" height="720" fill="rgba(6,12,20,0.4)" />

  <rect x="30" y="24" width="740" height="72" rx="18" fill="rgba(255,255,255,0.14)" stroke="rgba(255,255,255,0.18)" />
  <rect x="820" y="24" width="430" height="72" rx="18" fill="rgba(10,18,28,0.68)" stroke="rgba(255,255,255,0.14)" />

  <text x="54" y="56" font-size="20" fill="#e8f1fb" font-family="Arial, sans-serif" font-weight="700">Slingshot Flash 3</text>
  <text x="54" y="76" font-size="12" fill="#b9c4d6" font-family="Arial, sans-serif">Bubble Shooter por gestos</text>

  <text x="310" y="60" font-size="12" fill="#b9c4d6" font-family="Arial, sans-serif">Pontuacao</text>
  <text x="310" y="80" font-size="18" fill="#e8f1fb" font-family="Arial, sans-serif" font-weight="600">1280</text>

  <text x="420" y="60" font-size="12" fill="#b9c4d6" font-family="Arial, sans-serif">Nivel</text>
  <text x="420" y="80" font-size="18" fill="#e8f1fb" font-family="Arial, sans-serif" font-weight="600">3</text>

  <g fill="rgba(12,24,39,0.72)">
    <rect x="842" y="40" width="100" height="40" rx="18" />
    <rect x="952" y="40" width="110" height="40" rx="18" />
    <rect x="1072" y="40" width="120" height="40" rx="18" />
  </g>
  <text x="862" y="66" font-size="12" fill="#e8f1fb" font-family="Arial, sans-serif">Camera</text>
  <text x="972" y="66" font-size="12" fill="#e8f1fb" font-family="Arial, sans-serif">Copiloto</text>
  <text x="1092" y="66" font-size="12" fill="#e8f1fb" font-family="Arial, sans-serif">Autoplay</text>

  <rect x="36" y="520" width="320" height="110" rx="18" fill="rgba(12,24,39,0.68)" stroke="rgba(255,255,255,0.12)" />
  <text x="54" y="550" font-size="14" fill="#45f2f2" font-family="Arial, sans-serif" font-weight="600">Copiloto Slingshot</text>
  <text x="54" y="575" font-size="12" fill="#b9c4d6" font-family="Arial, sans-serif">Mire na area destacada</text>
  <text x="54" y="595" font-size="12" fill="#b9c4d6" font-family="Arial, sans-serif">para cascata de bolhas.</text>

  <rect x="930" y="520" width="300" height="110" rx="18" fill="rgba(12,24,39,0.68)" stroke="rgba(255,255,255,0.12)" />
  <text x="948" y="550" font-size="12" fill="#b9c4d6" font-family="Arial, sans-serif" letter-spacing="1">GESTO</text>
  <text x="948" y="575" font-size="14" fill="#e8f1fb" font-family="Arial, sans-serif">Pinca detectada</text>
  <rect x="948" y="590" width="250" height="8" rx="4" fill="rgba(255,255,255,0.1)" />
  <rect x="948" y="590" width="170" height="8" rx="4" fill="#45f2f2" />

  <g opacity="0.95">
    <circle cx="280" cy="180" r="20" fill="url(#bubbleBlue)" />
    <circle cx="320" cy="180" r="20" fill="url(#bubbleYellow)" />
    <circle cx="360" cy="180" r="20" fill="url(#bubblePink)" />
    <circle cx="300" cy="215" r="20" fill="url(#bubblePink)" />
    <circle cx="340" cy="215" r="20" fill="url(#bubbleBlue)" />
    <circle cx="380" cy="215" r="20" fill="url(#bubbleYellow)" />
    <circle cx="260" cy="250" r="20" fill="url(#bubbleYellow)" />
    <circle cx="300" cy="250" r="20" fill="url(#bubbleBlue)" />
    <circle cx="340" cy="250" r="20" fill="url(#bubblePink)" />
    <circle cx="380" cy="250" r="20" fill="url(#bubbleBlue)" />
    <circle cx="420" cy="250" r="20" fill="url(#bubbleYellow)" />
  </g>

  <g>
    <circle cx="640" cy="560" r="28" fill="url(#bubbleBlue)" />
    <circle cx="700" cy="580" r="20" fill="url(#bubblePink)" />
    <path d="M640 530 L640 260" stroke="rgba(255,255,255,0.45)" stroke-width="2" stroke-dasharray="6 8" />
  </g>

  <rect x="30" y="650" width="1220" height="44" rx="16" fill="rgba(8,16,28,0.7)" stroke="rgba(255,255,255,0.12)" />
  <text x="50" y="678" font-size="12" fill="#b9c4d6" font-family="Arial, sans-serif">Pinça com o polegar + indicador, puxe e solte para lancar.</text>
  <text x="1000" y="678" font-size="12" fill="#45f2f2" font-family="Arial, sans-serif">Camera ativa - BRIO 305</text>
</svg>
